<svg width="96" height="174" viewBox="0 0 96 174" fill="none" xmlns="http://www.w3.org/2000/svg">
<path d="M61.6757 0.274914L61.6087 38.6359L61.5407 76.9969L58.3847 68.0919L58.3787 68.0749L54.3007 153.477C58.3107 164.801 60.4587 170.846 60.4827 170.87C60.5137 170.902 62.7997 171.04 65.5607 171.177C73.9267 171.592 84.2947 172.481 92.1597 173.459C93.9807 173.685 95.5477 173.801 95.6427 173.716C95.7367 173.632 95.7877 134.573 95.7567 86.9189L95.6987 0.274914H61.6757V0.274914ZM0.137695 0.159912V86.8919C0.137695 134.595 0.184692 173.671 0.241692 173.728C0.298692 173.785 3.25269 173.506 6.80669 173.108C10.3597 172.71 15.2717 172.215 17.7207 172.008C21.4767 171.691 32.6907 170.97 33.9887 170.962C34.3667 170.96 34.3907 169.012 34.4457 134.227L34.5037 97.4929L37.2167 105.17L38.1767 107.883L42.2537 22.5019L40.8527 18.5419C38.7601 12.6233 36.6658 6.7053 34.5697 0.78791L34.3447 0.159912H0.137695V0.159912Z" fill="#B1060F"/>
<path d="M0.137695 0.159912V48.8449L34.4337 139.821C34.4377 137.736 34.4417 136.61 34.4457 134.227L34.5037 97.4929L37.2167 105.17C52.3207 147.908 60.4347 170.822 60.4827 170.87C60.5137 170.902 62.7997 171.04 65.5607 171.177C73.9267 171.592 84.2947 172.481 92.1597 173.459C93.9807 173.685 95.5477 173.801 95.6427 173.716C95.7067 173.658 95.7497 154.506 95.7607 127.489L61.6247 29.3489L61.6087 38.6359L61.5407 76.9969L58.3847 68.0919C55.3007 59.3909 53.2417 53.5719 40.8527 18.5419C38.7601 12.6233 36.6658 6.7053 34.5697 0.78791L34.3447 0.159912H0.137695V0.159912Z" fill="url(#paint0_radial_256_180)"/>
<path d="M0.138672 0.159912L34.5037 97.5369V97.4929L37.2167 105.17C52.3207 147.908 60.4347 170.822 60.4827 170.87C60.5137 170.902 62.7997 171.04 65.5607 171.177C73.9267 171.592 84.2947 172.481 92.1597 173.459C93.9717 173.684 95.5297 173.799 95.6397 173.717L61.5397 76.9799V76.9969L58.3837 68.0919C55.2997 59.3909 53.2407 53.5719 40.8517 18.5419C37.5197 9.12191 34.6927 1.13391 34.5687 0.78791L34.3437 0.159912H0.138672V0.159912Z" fill="#E50914"/>
<path d="M61.6757 0.274914L61.6087 38.6359L61.5407 76.9969L58.3847 68.0919L58.3787 68.0749L54.3007 153.477C58.3107 164.801 60.4587 170.846 60.4827 170.87C60.5137 170.902 62.7997 171.04 65.5607 171.177C73.9267 171.592 84.2947 172.481 92.1597 173.459C93.9807 173.685 95.5477 173.801 95.6427 173.716C95.7367 173.632 95.7877 134.573 95.7567 86.9189L95.6987 0.274914H61.6757V0.274914ZM0.137695 0.159912V86.8919C0.137695 134.595 0.184692 173.671 0.241692 173.728C0.298692 173.785 3.25269 173.506 6.80669 173.108C10.3597 172.71 15.2717 172.215 17.7207 172.008C21.4767 171.691 32.6907 170.97 33.9887 170.962C34.3667 170.96 34.3907 169.012 34.4457 134.227L34.5037 97.4929L37.2167 105.17L38.1767 107.883L42.2537 22.5019L40.8527 18.5419C38.7601 12.6233 36.6658 6.7053 34.5697 0.78791L34.3447 0.159912H0.137695V0.159912Z" fill="#B1060F"/>
<path d="M0.137695 0.159912V48.8449L34.4337 139.821C34.4377 137.736 34.4417 136.61 34.4457 134.227L34.5037 97.4929L37.2167 105.17C52.3207 147.908 60.4347 170.822 60.4827 170.87C60.5137 170.902 62.7997 171.04 65.5607 171.177C73.9267 171.592 84.2947 172.481 92.1597 173.459C93.9807 173.685 95.5477 173.801 95.6427 173.716C95.7067 173.658 95.7497 154.506 95.7607 127.489L61.6247 29.3489L61.6087 38.6359L61.5407 76.9969L58.3847 68.0919C55.3007 59.3909 53.2417 53.5719 40.8527 18.5419C38.7601 12.6233 36.6658 6.7053 34.5697 0.78791L34.3447 0.159912H0.137695V0.159912Z" fill="url(#paint1_radial_256_180)"/>
<path d="M0.138672 0.159912L34.5037 97.5369V97.4929L37.2167 105.17C52.3207 147.908 60.4347 170.822 60.4827 170.87C60.5137 170.902 62.7997 171.04 65.5607 171.177C73.9267 171.592 84.2947 172.481 92.1597 173.459C93.9717 173.684 95.5297 173.799 95.6397 173.717L61.5397 76.9799V76.9969L58.3837 68.0919C55.2997 59.3909 53.2407 53.5719 40.8517 18.5419C37.5197 9.12191 34.6927 1.13391 34.5687 0.78791L34.3437 0.159912H0.138672V0.159912Z" fill="#E50914"/>
<defs>
<radialGradient id="paint0_radial_256_180" cx="0" cy="0" r="1" gradientUnits="userSpaceOnUse" gradientTransform="translate(4622.55 4707.53) scale(6735.49 6735.56)">
<stop/>
<stop offset="1" stop-opacity="0"/>
</radialGradient>
<radialGradient id="paint1_radial_256_180" cx="0" cy="0" r="1" gradientUnits="userSpaceOnUse" gradientTransform="translate(4622.55 4707.53) scale(6735.49 6735.56)">
<stop/>
<stop offset="1" stop-opacity="0"/>
</radialGradient>
</defs>
</svg>
